<svg version="1.2" xmlns="http://www.w3.org/2000/svg" viewBox="0 0 20 20" width="20" height="20">
	<title>eye-svgrepo-com (1)</title>
	<style>
		.s0 { fill: #ffffff } 
		.s1 { fill: #fdab3d } 
	</style>
	<path fill-rule="evenodd" class="s0" d="m4.2 4.3c3.2-3.1 8.2-3.1 11.4 0l2.1 2.2c0.7 0.6 1.2 1.2 1.6 1.7 0.4 0.5 0.7 1.1 0.7 1.8 0 0.7-0.3 1.3-0.7 1.8-0.4 0.5-0.9 1.1-1.6 1.7l-2.1 2.2c-3.2 3.1-8.2 3.1-11.4 0l-2.1-2.2c-0.7-0.6-1.2-1.2-1.6-1.7-0.4-0.5-0.7-1.1-0.7-1.8 0-0.7 0.3-1.3 0.7-1.8 0.4-0.5 0.9-1.1 1.6-1.7q0 0 0 0zm5.8 9.6c2.2 0 4-1.8 4-4 0-2.2-1.8-4-4-4-2.2 0-4 1.8-4 4 0 2.2 1.8 4 4 4z"/>
	<path fill-rule="evenodd" class="s1" d="m10 8c-1.1 0-2 0.9-2 2 0 1.1 0.9 2 2 2 1.1 0 2-0.9 2-2 0-1.1-0.9-2-2-2z"/>
</svg>